<svg width="273" height="126" viewBox="0 0 273 126" fill="none" xmlns="http://www.w3.org/2000/svg">
    <path opacity="0.35"
        d="M-31.436 67.2168H121.197C116.876 58.2729 103.715 47.845 93.456 44.3467C87.4596 42.3012 71.3254 43.7852 65.9623 47.1943C62.0096 36.9224 53.1294 28.7449 42.6727 25.7592C32.216 22.7734 20.4343 25.0417 11.7877 31.7129C0.985149 21.1959 -16.6314 15.2956 -31.436 18.8251V67.2168Z"
        fill="url(#paint0_linear_655_1959)" />
    <path
        d="M-31.436 42.5065C-17.2692 43.322 -4.43635 46.544 7.56551 54.0619C19.5629 61.5798 29.0224 73.7947 30.9898 87.7387C41.0108 84.3118 52.1503 83.572 62.2252 86.843C72.3001 90.114 81.1398 97.6586 84.814 107.525C94.9024 104.784 105.727 103.777 115.802 106.58C125.877 109.383 135.256 116.259 138.867 126.001H-31.436V42.5065Z"
        fill="url(#paint1_linear_655_1959)" />
    <path
        d="M305.042 68.0101C280.158 69.2223 256.145 78.9995 240.528 94.2715C226.895 91.981 212.684 91.3125 199.015 93.4694C185.351 95.6263 172.245 100.742 162.812 108.808C157.072 106.29 150.078 106.353 143.574 107.088C125.625 109.116 108.588 115.858 95.8496 126.001H305.446L305.047 68.0101H305.042Z"
        fill="url(#paint2_linear_655_1959)" />
    <path
        d="M-31.1935 -0.203735C-16.0834 0.571673 -1.49877 6.81505 7.98324 16.5745C16.2615 15.1084 24.8945 14.685 33.1907 16.062C41.4914 17.4435 49.4462 20.71 55.1777 25.8616C58.6632 24.2528 62.9124 24.2929 66.8606 24.7653C77.7575 26.0621 88.1064 30.367 95.8411 36.8465H-31.436L-31.1935 -0.203735Z"
        fill="url(#paint3_linear_655_1959)" />
    <path
        d="M-29.4103 104.73C-21.8462 92.1234 -4.9484 87.2704 7.44423 94.1466C11.2846 84.1866 18.97 76.0181 28.2723 72.0162C37.5746 68.0144 48.3727 68.2239 57.5313 72.5867C57.6391 72.6401 62.7417 66.4458 63.3032 65.8843C65.4053 63.7853 67.6646 61.8201 70.1665 60.3406C77.0837 56.2496 84.3109 54.7879 92.0995 56.2184C98.8551 57.4617 105.265 61.0848 109.945 66.4903C111.814 68.6472 113.404 71.0938 114.608 73.7453C121.049 70.5857 128.752 70.5679 135.207 73.6918C141.661 76.8158 146.759 83.0369 148.834 90.3186C162.377 88.7989 176.454 95.938 183.991 108.144C184.431 108.862 184.436 109.793 183.371 109.793H-31.436L-29.4103 104.726V104.73Z"
        fill="url(#paint4_linear_655_1959)" />
    <path
        d="M273.025 61.5082C268.295 59.6543 262.865 60.403 258.638 63.4913C255.521 54.1775 248.514 46.7665 240.267 44.057C232.02 41.3476 222.727 43.4064 215.909 49.4537C207.388 39.9215 194.515 34.5694 182.836 37.7691C177.37 39.2664 172.204 42.1898 167.766 46.1916C165.485 48.246 163.391 50.5901 161.55 53.1748C161.101 53.8031 157.278 60.657 157.242 60.6481C147.45 58.1258 136.549 63.1526 130.88 72.8051C126.303 69.8372 122.306 70.8799 117.711 72.7605C115.433 73.6919 113.273 74.9887 111.319 76.6376C110.546 77.2882 107.564 80.8266 106.782 81.6376H286.891C283.486 73.5315 281.124 64.6767 273.03 61.5037L273.025 61.5082Z"
        fill="url(#paint5_linear_655_1959)" />
    <path
        d="M305.443 -0.203608C295.363 0.126163 286.232 1.42742 277.693 4.46667C269.154 7.50591 262.426 12.4436 261.024 18.0809C253.891 16.6949 245.968 16.3964 238.799 17.7199C231.63 19.0435 225.342 22.0916 222.728 26.0801C215.55 24.9704 207.847 24.5649 200.682 25.6968C193.514 26.8287 186.843 29.6095 184.27 33.549H305.443V-0.208069V-0.203608Z"
        fill="url(#paint6_linear_655_1959)" />
    <path opacity="0.35"
        d="M305.442 23.2546C294.37 23.718 284.335 25.5496 274.957 29.8233C265.578 34.0969 258.185 41.0444 256.644 48.9723C248.81 47.0249 240.105 46.6015 232.227 48.4643C224.353 50.327 217.44 54.6141 214.57 60.2246C206.683 58.6649 198.225 58.0945 190.351 59.6854C182.477 61.2808 175.146 65.189 172.321 70.7283H305.442V23.2501V23.2546Z"
        fill="url(#paint7_linear_655_1959)" />
    <defs>
        <linearGradient id="paint0_linear_655_1959" x1="46.4682" y1="92.8588" x2="41.746"
            y2="15.3891" gradientUnits="userSpaceOnUse">
            <stop offset="0.45" stop-color="white" class="fill-blue-500" stop-opacity="0" />
            <stop offset="1" stop-color="white" />
        </linearGradient>
        <linearGradient id="paint1_linear_655_1959" x1="19.4955" y1="152.601" x2="64.3296"
            y2="61.6229" gradientUnits="userSpaceOnUse">
            <stop offset="0.45" stop-color="white" stop-opacity="0" />
            <stop offset="1" stop-color="white" />
        </linearGradient>
        <linearGradient id="paint2_linear_655_1959" x1="209.144" y1="144.366" x2="197.824"
            y2="81.7666" gradientUnits="userSpaceOnUse">
            <stop offset="0.45" stop-color="white" stop-opacity="0" />
            <stop offset="1" stop-color="white" />
        </linearGradient>
        <linearGradient id="paint3_linear_655_1959" x1="31.4659" y1="46.4055" x2="32.9382"
            y2="-2.49947" gradientUnits="userSpaceOnUse">
            <stop offset="0.28" stop-color="white" stop-opacity="0" />
            <stop offset="0.92" stop-color="white" />
        </linearGradient>
        <linearGradient id="paint4_linear_655_1959" x1="74.236" y1="136.299" x2="80.9394"
            y2="52.4087" gradientUnits="userSpaceOnUse">
            <stop offset="0.45" stop-color="white" stop-opacity="0" />
            <stop offset="1" stop-color="white" />
        </linearGradient>
        <linearGradient id="paint5_linear_655_1959" x1="198.306" y1="105.426" x2="194.189"
            y2="37.9077" gradientUnits="userSpaceOnUse">
            <stop offset="0.45" stop-color="white" stop-opacity="0" />
            <stop offset="1" stop-color="white" />
        </linearGradient>
        <linearGradient id="paint6_linear_655_1959" x1="245.685" y1="43.3574" x2="244.217"
            y2="-4.70972" gradientUnits="userSpaceOnUse">
            <stop offset="0.24" stop-color="white" stop-opacity="0" />
            <stop offset="1" stop-color="white" />
        </linearGradient>
        <linearGradient id="paint7_linear_655_1959" x1="262.034" y1="93.2419" x2="228.594"
            y2="25.3837" gradientUnits="userSpaceOnUse">
            <stop offset="0.45" stop-color="white" stop-opacity="0" />
            <stop offset="1" stop-color="white" />
        </linearGradient>
    </defs>
</svg>